solid
facet normal -0.034861513217774656 0.9993921527089188 0.0
 outer loop
  vertex -206.45700000004 255.9690000002608 66.21439000000004
  vertex -125.41400000004 258.7960000002608 66.21439000000004
  vertex -125.41400000004 258.7960000002608 -14.778610000000015
 endloop
endfacet
facet normal -0.034861513217774656 0.9993921527089188 0.0
 outer loop
  vertex -206.45700000004 255.9690000002608 66.21439000000004
  vertex -125.41400000004 258.7960000002608 -14.778610000000015
  vertex -206.45700000004 255.9690000002608 -14.778610000000015
 endloop
endfacet
endsolid
