solid
facet normal 0.0 -0.5537597662280705 0.8326764805775606
 outer loop
  vertex -27.99700000004009 417.67000000026076 110.90438999999998
  vertex -141.12800000004006 417.67000000026076 110.90438999999998
  vertex -27.99700000004009 375.76700000026074 83.03739000000002
 endloop
endfacet
facet normal 0.0 -0.5537597662280705 0.8326764805775606
 outer loop
  vertex -27.99700000004009 375.76700000026074 83.03739000000002
  vertex -141.12800000004006 417.67000000026076 110.90438999999998
  vertex -141.12800000004006 375.76700000026074 83.03739000000002
 endloop
endfacet
endsolid
