solid
facet normal 0.04206048736126161 -0.9991150661475049 0.0
 outer loop
  vertex -196.79900000004 292.61900000026077 -20.677610000000016
  vertex -70.85400000004006 297.9210000002608 131.17539000000005
  vertex -196.79900000004 292.61900000026077 131.17539000000005
 endloop
endfacet
facet normal 0.034872359210402416 -0.9993739381789084 0.0059707831881521106
 outer loop
  vertex -70.85400000004006 297.9210000002608 131.17539000000005
  vertex -196.79900000004 292.61900000026077 -20.677610000000016
  vertex -44.85400000004006 297.9210000002608 -20.677610000000016
 endloop
endfacet
endsolid
