solid
facet normal -0.2839750862608297 -0.9588316590430013 0.0
 outer loop
  vertex -55.37500000004002 321.98200000026077 33.92439000000002
  vertex -182.22200000004 359.55000000026075 138.74138999999997
  vertex -182.22200000004 359.55000000026075 33.92439000000002
 endloop
endfacet
facet normal -0.2839750862608297 -0.9588316590430013 -0.0
 outer loop
  vertex -55.37500000004002 321.98200000026077 138.74138999999997
  vertex -182.22200000004 359.55000000026075 138.74138999999997
  vertex -55.37500000004002 321.98200000026077 33.92439000000002
 endloop
endfacet
endsolid
